<svg width="48" height="24" xmlns="http://www.w3.org/2000/svg"><g fill="none" fill-rule="evenodd"><path d="M36 0c6.627 0 12 5.373 12 12s-5.373 12-12 12-12-5.373-12-12S29.373 0 36 0zm5.415 6.182l-6.676 8.295-3.254-3.133a.501.501 0 00-.692 0l-.65.63a.463.463 0 000 .67l4.37 4.216a.499.499 0 00.735-.044l7.65-9.52a.464.464 0 00-.086-.663v-.002L42.1 6.1a.5.5 0 00-.685.083z" fill="#01B376"/><path d="M12 0c6.627 0 12 5.373 12 12s-5.373 12-12 12S0 18.627 0 12 5.373 0 12 0zM7.616 5.353a1 1 0 00-1.414 0l-.849.849a1 1 0 000 1.414l11.031 11.03a1 1 0 001.414 0l.849-.848a1 1 0 000-1.414z" fill="#F5333F" opacity=".985"/></g></svg>